<?xml version="1.0" encoding="UTF-8"?>
<svg width="512" height="512" viewBox="0 0 512 512" fill="none" xmlns="http://www.w3.org/2000/svg">
  <rect width="512" height="512" rx="80" fill="url(#gradient)"/>
  <defs>
    <linearGradient id="gradient" x1="0%" y1="0%" x2="100%" y2="100%">
      <stop offset="0%" style="stop-color:#667eea;stop-opacity:1" />
      <stop offset="100%" style="stop-color:#764ba2;stop-opacity:1" />
    </linearGradient>
  </defs>
  
  <!-- Guitar body -->
  <ellipse cx="256" cy="350" rx="120" ry="90" fill="#8B4513"/>
  <ellipse cx="256" cy="350" rx="100" ry="70" fill="#A0522D"/>
  <circle cx="256" cy="350" r="30" fill="#2D1810"/>
  
  <!-- Guitar neck -->
  <rect x="240" y="120" width="32" height="240" fill="#654321"/>
  
  <!-- Frets -->
  <rect x="235" y="140" width="42" height="3" fill="#C0C0C0"/>
  <rect x="235" y="170" width="42" height="3" fill="#C0C0C0"/>
  <rect x="235" y="200" width="42" height="3" fill="#C0C0C0"/>
  <rect x="235" y="230" width="42" height="3" fill="#C0C0C0"/>
  <rect x="235" y="260" width="42" height="3" fill="#C0C0C0"/>
  
  <!-- Strings -->
  <rect x="244" y="120" width="1" height="240" fill="#E0E0E0"/>
  <rect x="248" y="120" width="1" height="240" fill="#E0E0E0"/>
  <rect x="252" y="120" width="1" height="240" fill="#E0E0E0"/>
  <rect x="256" y="120" width="1" height="240" fill="#E0E0E0"/>
  <rect x="260" y="120" width="1" height="240" fill="#E0E0E0"/>
  <rect x="264" y="120" width="1" height="240" fill="#E0E0E0"/>
  
  <!-- Head -->
  <rect x="235" y="80" width="42" height="50" rx="8" fill="#654321"/>
  
  <!-- Tuning pegs -->
  <circle cx="242" cy="95" r="4" fill="#C0C0C0"/>
  <circle cx="250" cy="95" r="4" fill="#C0C0C0"/>
  <circle cx="258" cy="95" r="4" fill="#C0C0C0"/>
  <circle cx="266" cy="95" r="4" fill="#C0C0C0"/>
  <circle cx="242" cy="115" r="4" fill="#C0C0C0"/>
  <circle cx="270" cy="115" r="4" fill="#C0C0C0"/>
  
  <!-- Chord fingering dots -->
  <circle cx="248" cy="185" r="6" fill="#FF6B6B"/>
  <circle cx="252" cy="215" r="6" fill="#FF6B6B"/>
  <circle cx="260" cy="215" r="6" fill="#FF6B6B"/>
</svg>
